<?xml version="1.0" encoding="iso-8859-1"?>
<!-- Generator: Adobe Illustrator 19.0.0, SVG Export Plug-In . SVG Version: 6.00 Build 0)  -->
<svg version="1.1" id="Capa_1" xmlns="http://www.w3.org/2000/svg" xmlns:xlink="http://www.w3.org/1999/xlink" x="0px" y="0px"
	 viewBox="0 0 512 512" style="enable-background:new 0 0 512 512;" xml:space="preserve">
<circle style="fill:#F9EB97;" cx="256" cy="256" r="256"/>
<path style="fill:#F1CB30;" d="M494.835,348.311L270.169,123.644l-43.092,80.573l26,25.891L249.833,256l-95.342,8.118
	l-16.236,17.773l97.715,96.889l-8.894,1.686l-66.535-66.488l-43.093,80.573l116.493,116.493C241.214,511.665,248.567,512,256,512
	C364.836,512,457.796,444.075,494.835,348.311z"/>
<polygon style="fill:#6C819F;" points="264.118,247.882 264.118,230.109 256,230.109 250.584,256 256,281.891 264.118,281.891 
	264.118,264.118 357.509,264.118 357.509,281.891 373.745,281.891 373.745,247.882 "/>
<polygon style="fill:#A1B8D8;" points="247.882,230.109 247.882,247.882 138.255,247.882 138.255,281.891 154.491,281.891 
	154.491,264.118 247.882,264.118 247.882,281.891 256,281.891 256,230.109 "/>
<path style="fill:#467BCA;" d="M284.924,394.551v-24.533c0-12.142-7.486-22.531-18.091-26.819c5.147-3.48,8.531-9.371,8.531-16.053
	c0-10.695-8.67-19.364-19.364-19.364l-10.833,59.166L256,394.551H284.924z"/>
<path style="fill:#68B7EA;" d="M236.636,327.147c0,6.681,3.384,12.572,8.531,16.053c-10.605,4.288-18.091,14.676-18.091,26.819
	v24.533H256v-86.769C245.305,307.782,236.636,316.452,236.636,327.147z"/>
<path style="fill:#467BCA;" d="M175.297,394.551v-24.533c0-12.142-7.486-22.531-18.091-26.819c5.147-3.48,8.531-9.371,8.531-16.053
	c0-10.695-8.67-19.364-19.364-19.364l-10.833,59.166l10.833,27.602h28.924V394.551z"/>
<path style="fill:#68B7EA;" d="M127.009,327.147c0,6.681,3.384,12.572,8.531,16.053c-10.605,4.288-18.091,14.676-18.091,26.819
	v24.533h28.924v-86.769C135.678,307.782,127.009,316.452,127.009,327.147z"/>
<path style="fill:#467BCA;" d="M394.551,394.551v-24.533c0-12.142-7.486-22.531-18.091-26.819c5.147-3.48,8.531-9.371,8.531-16.053
	c0-10.695-8.67-19.364-19.364-19.364l-10.833,59.166l10.833,27.602h28.924V394.551z"/>
<path style="fill:#68B7EA;" d="M346.263,327.147c0,6.681,3.384,12.572,8.531,16.053c-10.605,4.288-18.091,14.676-18.091,26.819
	v24.533h28.924v-86.769C354.933,307.782,346.263,316.452,346.263,327.147z"/>
<path style="fill:#467BCA;" d="M284.924,204.218v-24.533c0-12.142-7.486-22.531-18.091-26.819c5.147-3.48,8.531-9.371,8.531-16.053
	c0-10.695-8.67-19.364-19.364-19.364l-10.833,59.166L256,204.218H284.924z"/>
<path style="fill:#68B7EA;" d="M236.636,136.813c0,6.681,3.384,12.572,8.531,16.053c-10.605,4.288-18.091,14.676-18.091,26.819
	v24.533H256v-86.769C245.305,117.449,236.636,126.119,236.636,136.813z"/>
<g>
</g>
<g>
</g>
<g>
</g>
<g>
</g>
<g>
</g>
<g>
</g>
<g>
</g>
<g>
</g>
<g>
</g>
<g>
</g>
<g>
</g>
<g>
</g>
<g>
</g>
<g>
</g>
<g>
</g>
</svg>
